<svg xmlns="http://www.w3.org/2000/svg" viewBox="0 0 25.25 23.62"><defs><style>.cls-1{fill:#5AB9ED;}</style></defs><title>bell</title><g id="Слой_2" data-name="Слой 2"><g id="Calque_3" data-name="Calque 3"><path class="cls-1" d="M19.05,23.62a6.21,6.21,0,1,1,6.2-6.21,6.22,6.22,0,0,1-6.2,6.21Zm0-11.42a5.21,5.21,0,1,0,5.2,5.21,5.22,5.22,0,0,0-5.2-5.21Z"/><path class="cls-1" d="M21.81,18.41H16.28a1,1,0,0,1,0-2h5.53a1,1,0,0,1,0,2Z"/><path class="cls-1" d="M19.05,21.17a1,1,0,0,1-1-1V14.65a1,1,0,0,1,2,0v5.52a1,1,0,0,1-1,1Z"/><path class="cls-1" d="M1,20.11A1,1,0,0,1,.55,20a1,1,0,0,1-.44-1.35l.26-.5c.79-1.53,1-2,1.43-7.19s4-8.9,8.74-8.9h.56a1,1,0,1,1,0,2h-.56c-3.71,0-6.42,2.83-6.74,7.05-.42,5.37-.71,6.13-1.66,8l-.25.49a1,1,0,0,1-.89.55Z"/><path class="cls-1" d="M18.68,12a1,1,0,0,1-1-.92c-.32-4.22-3-7-6.74-7h-.56a1,1,0,0,1,0-2h.56c4.74,0,8.33,3.66,8.74,8.9A1,1,0,0,1,18.76,12Z"/><path class="cls-1" d="M1.05,20.12l-.41-2a49.72,49.72,0,0,1,13.05-.95l-.11,2a47.45,47.45,0,0,0-12.53.91Z"/><path class="cls-1" d="M10.74,3.87a1,1,0,0,1-1-1V1a1,1,0,0,1,2,0V2.87a1,1,0,0,1-1,1Z"/><path class="cls-1" d="M10.74,21.86A2.84,2.84,0,0,1,7.9,19a1,1,0,0,1,2,0,.84.84,0,0,0,1.68,0,1,1,0,0,1,2,0,2.84,2.84,0,0,1-2.84,2.84Z"/></g></g></svg>