<svg xmlns="http://www.w3.org/2000/svg" viewBox="0 0 18.3 13.28"><defs><style>.cls-1{fill:#5AB9ED;}</style></defs><title>envelope</title><g id="Слой_2" data-name="Слой 2"><g id="Calque_67" data-name="Calque 67"><path class="cls-1" d="M16.42,13.28H1.89A1.89,1.89,0,0,1,0,11.39V1.89A1.89,1.89,0,0,1,1.89,0H16.42A1.89,1.89,0,0,1,18.3,1.89v9.5a1.89,1.89,0,0,1-1.88,1.89ZM1.89,1.6a.29.29,0,0,0-.29.29v9.5a.29.29,0,0,0,.29.29H16.42a.28.28,0,0,0,.28-.29V1.89a.28.28,0,0,0-.28-.29Z"/><path class="cls-1" d="M16.42,12.88H1.89a1.5,1.5,0,0,1-1.39-1,.39.39,0,0,1,.11-.44L6.28,6.42a.4.4,0,0,1,.53.6L1.38,11.86a.69.69,0,0,0,.51.22H16.42a.68.68,0,0,0,.5-.22L11.43,7a.39.39,0,0,1,0-.56.4.4,0,0,1,.56,0l5.74,5.12a.4.4,0,0,1,.1.44,1.48,1.48,0,0,1-1.38,1Z"/><path class="cls-1" d="M9.15,9.28a.37.37,0,0,1-.26-.1L.61,1.8A.39.39,0,0,1,.5,1.36,1.5,1.5,0,0,1,1.89.4H16.42a1.48,1.48,0,0,1,1.38,1,.4.4,0,0,1-.1.44L9.42,9.18a.39.39,0,0,1-.27.1ZM1.39,1.42,9.15,8.35l7.77-6.93a.68.68,0,0,0-.5-.22H1.89a.65.65,0,0,0-.5.22Z"/></g></g></svg>