<svg xmlns="http://www.w3.org/2000/svg" viewBox="0 0 18.82 15.57"><defs><style>.cls-1{fill:#5AB9ED;}</style></defs><title>fax</title><g id="Слой_2" data-name="Слой 2"><g id="Calque_67" data-name="Calque 67"><path class="cls-1" d="M15.27,15.57H3.56a.4.4,0,0,1-.4-.4V6a.4.4,0,0,1,.4-.4H15.27a.4.4,0,0,1,.4.4v9.13a.4.4,0,0,1-.4.4ZM4,14.77H14.87V6.44H4v8.33Z"/><polygon class="cls-1" points="18.82 9.02 16.31 9.02 16.31 7.42 17.22 7.42 17.22 1.6 1.6 1.6 1.6 7.42 2.51 7.42 2.51 9.02 0 9.02 0 0 18.82 0 18.82 9.02 18.82 9.02"/><path class="cls-1" d="M14.11,2.79a.95.95,0,1,0,1,1,.94.94,0,0,0-1-1Z"/><path class="cls-1" d="M11.8,3.93H6.88a.4.4,0,1,1,0-.8H11.8a.4.4,0,1,1,0,.8Z"/><path class="cls-1" d="M7.6,7.71a2.19,2.19,0,0,0-.7.78,2,2,0,0,0-.14.3,7.24,7.24,0,0,0,1.81,2.8h0a7.39,7.39,0,0,0,2.8,1.81l.31-.14a2.21,2.21,0,0,0,.78-.71l-1.36-1.35-.28.27a.29.29,0,0,1-.23.1.28.28,0,0,1-.22-.1L8.68,9.8a.34.34,0,0,1,0-.46L9,9.07,7.6,7.71Z"/></g></g></svg>