<svg xmlns="http://www.w3.org/2000/svg" viewBox="0 0 27.68 23.92"><defs><style>.cls-1{fill:#5AB9ED;}</style></defs><title>folder_1</title><g id="Слой_2" data-name="Слой 2"><g id="Calque_3" data-name="Calque 3"><path class="cls-1" d="M1,21.05a1,1,0,0,1-1-1V2A2,2,0,0,1,2,0H9a2,2,0,0,1,2,2v.72H21.53a1,1,0,1,1,0,2H10a1,1,0,0,1-1-1V2H2V20.05a1,1,0,0,1-1,1Z"/><path class="cls-1" d="M21.47,23.92a6.21,6.21,0,1,1,6.21-6.21,6.22,6.22,0,0,1-6.21,6.21Zm0-11.42a5.21,5.21,0,1,0,5.21,5.21,5.22,5.22,0,0,0-5.21-5.21Z"/><path class="cls-1" d="M21.47,21.47a1,1,0,0,1-1-1V15a1,1,0,0,1,2,0v5.52a1,1,0,0,1-1,1Z"/><path class="cls-1" d="M24.23,18.71H18.71a1,1,0,0,1,0-2h5.52a1,1,0,0,1,0,2Z"/><path class="cls-1" d="M16.27,21.05H1.75a1,1,0,0,1-.95-1.3L5,6.57a1,1,0,0,1,1-.7H26.47a1,1,0,0,1,1,1.31l-1.92,6-1.91-.6,1.51-4.74H6.68L3.12,19.05H16.27v2Z"/></g></g></svg>