<svg xmlns="http://www.w3.org/2000/svg" viewBox="0 0 23.83 23.83"><defs><style>.cls-1{fill:#5AB9ED;}</style></defs><title>gaph</title><g id="Слой_2" data-name="Слой 2"><g id="Calque_3" data-name="Calque 3"><path class="cls-1" d="M22.83,23.83H1a1,1,0,0,1-1-1V1A1,1,0,0,1,2,1V21.83H22.83a1,1,0,0,1,0,2Z"/><path class="cls-1" d="M8.29,20.21H4.6a.93.93,0,0,1-.92-.93V14.12a.93.93,0,0,1,.92-.93H8.29a.93.93,0,0,1,.92.93v5.16a.93.93,0,0,1-.92.93ZM5.52,18.36H7.37V15H5.52v3.32Z"/><path class="cls-1" d="M22.54,20.21H18.85a.93.93,0,0,1-.92-.93V1a.92.92,0,0,1,.92-.92h3.69a.93.93,0,0,1,.93.92V19.28a.93.93,0,0,1-.93.93Zm-2.76-1.85h1.84V1.92H19.78V18.36Z"/><path class="cls-1" d="M15.42,20.21H11.73a.93.93,0,0,1-.93-.93V7.7a.93.93,0,0,1,.93-.92h3.69a.92.92,0,0,1,.92.92V19.28a.93.93,0,0,1-.92.93Zm-2.77-1.85h1.84V8.62H12.65v9.74Z"/></g></g></svg>