<svg xmlns="http://www.w3.org/2000/svg" viewBox="0 0 21.14 25.5"><defs><style>.cls-1{fill:#253464;}</style></defs><title>Ресурс 3</title><g id="Слой_2" data-name="Слой 2"><g id="Calque_3" data-name="Calque 3"><path class="cls-1" d="M14.14,25a.51.51,0,0,1-.5-.5v-6a.5.5,0,0,1,.5-.5h6a.5.5,0,0,1,.5.5.5.5,0,0,1-.5.5h-5.5v5.5a.5.5,0,0,1-.5.5Z"/><path class="cls-1" d="M14.14,25.5H3.81a1,1,0,0,1-1-1V4a1,1,0,0,1,1-1H20.14a1,1,0,0,1,1,1V18.5a1,1,0,0,1-.29.7l-6,6a1,1,0,0,1-.71.3Zm-9.33-2h8.92l5.41-5.42V5H4.81V23.5Z"/><path class="cls-1" d="M13.06,8.26H7.19a.5.5,0,1,1,0-1h5.87a.5.5,0,0,1,0,1Z"/><path class="cls-1" d="M16.94,10.68H7.19a.5.5,0,0,1-.5-.5.5.5,0,0,1,.5-.5h9.75a.5.5,0,0,1,.5.5.51.51,0,0,1-.5.5Z"/><path class="cls-1" d="M16.94,13.09H7.19a.5.5,0,0,1-.5-.5.5.5,0,0,1,.5-.5h9.75a.51.51,0,0,1,.5.5.5.5,0,0,1-.5.5Z"/><path class="cls-1" d="M11.27,15.51H7.19a.5.5,0,1,1,0-1h4.08a.5.5,0,0,1,0,1Z"/><path class="cls-1" d="M10.06,4.76H4.19a.5.5,0,1,1,0-1h5.87a.5.5,0,0,1,0,1Z"/><path class="cls-1" d="M1,23.13a1,1,0,0,1-1-1V2A2,2,0,0,1,2,0H17.33a1,1,0,0,1,0,2H2V22.13a1,1,0,0,1-1,1Z"/></g></g></svg>