<svg xmlns="http://www.w3.org/2000/svg" viewBox="0 0 24.59 24.59"><defs><style>.cls-1{fill:#5ab9ed;}</style></defs><title>pencil</title><g id="Слой_2" data-name="Слой 2"><g id="Calque_3" data-name="Calque 3"><path class="cls-1" d="M11,24.59h0L1.3,24.26a1,1,0,0,1-1-1L0,13.6a1,1,0,0,1,.29-.74L12.86.29a1,1,0,0,1,.7-.29h0a1,1,0,0,1,.71.29l10,10a1,1,0,0,1,.29.71,1,1,0,0,1-.29.71L11.74,24.3a1,1,0,0,1-.71.29ZM2.3,22.29l8.33.29L22.18,11,13.56,2.41,2,14l.29,8.33Z"/><path class="cls-1" d="M20.42,13.69a.49.49,0,0,1-.35-.15l-9-9a.5.5,0,0,1,0-.7.5.5,0,0,1,.71,0l9,9a.51.51,0,0,1,0,.71.51.51,0,0,1-.36.15Z"/><path class="cls-1" d="M12.78,21.48a.51.51,0,0,1-.36-.15A2.89,2.89,0,0,0,9,20.82a.5.5,0,0,1-.68-.67,2.89,2.89,0,0,0-3.91-3.91.49.49,0,0,1-.58-.09.5.5,0,0,1-.09-.58,2.89,2.89,0,0,0-.51-3.4A.5.5,0,0,1,4,11.46,3.89,3.89,0,0,1,5,15a3.89,3.89,0,0,1,4.58,4.59,3.88,3.88,0,0,1,3.52,1.05.5.5,0,0,1,0,.71.5.5,0,0,1-.35.15Z"/><path class="cls-1" d="M4.73,15.44a.5.5,0,0,1-.35-.15.51.51,0,0,1,0-.71l8.37-8.36a.49.49,0,0,1,.7.7L5.09,15.29a.51.51,0,0,1-.36.15Z"/><path class="cls-1" d="M9.45,20.15A.54.54,0,0,1,9.09,20a.51.51,0,0,1,0-.71l8.37-8.37a.5.5,0,0,1,.71.71L9.8,20a.54.54,0,0,1-.35.14Z"/><path class="cls-1" d="M5.85,23.92h0l-4.52-.16a.5.5,0,0,1-.48-.48L.67,18.57a.5.5,0,0,1,.46-.51h.11a1.36,1.36,0,0,1,.29,0A4.88,4.88,0,0,1,6.4,22.9a3.42,3.42,0,0,1,0,.46l0,.12a.5.5,0,0,1-.49.44Zm-4-1.14,3.59.12h0A3.88,3.88,0,0,0,1.69,19l.12,3.76Z"/></g></g></svg>