<svg xmlns="http://www.w3.org/2000/svg" viewBox="0 0 15.38 15.38"><defs><style>.cls-1{fill:#5AB9ED;}</style></defs><title>phone</title><g id="Слой_2" data-name="Слой 2"><g id="Calque_3" data-name="Calque 3"><path class="cls-1" d="M12.14,15.38a12.13,12.13,0,0,1-8.37-3.72l0-.05A12,12,0,0,1,0,3V2.8l.14-.17A7.76,7.76,0,0,1,.79,1.9,8,8,0,0,1,3.59.08,1.23,1.23,0,0,1,4,0c.35,0,1.16.18,1.36.75.36,1,.82,2.3,1.15,3.56a1.62,1.62,0,0,1-.49,1.51l-1.17.74A.89.89,0,0,0,5,7,17.32,17.32,0,0,0,6.6,8.8a16,16,0,0,0,1.82,1.54.63.63,0,0,0,.36.14h.07l.71-1.14a1.61,1.61,0,0,1,1.23-.52,1,1,0,0,1,.26,0A16.75,16.75,0,0,1,14.69,10a1.59,1.59,0,0,1,.62,1.78,8.18,8.18,0,0,1-1.83,2.81,7.59,7.59,0,0,1-.73.64l-.17.14ZM1.32,3.28a10.91,10.91,0,0,0,3.34,7.4l.07.06a10.77,10.77,0,0,0,7.38,3.32l.44-.4a6.8,6.8,0,0,0,1.52-2.35,1,1,0,0,1-.06-.15,16,16,0,0,0-3.25-1l-.16,0-.66,1.05a1.62,1.62,0,0,1-2.3.2,16.82,16.82,0,0,1-2-1.68A18.92,18.92,0,0,1,4,7.75,1.89,1.89,0,0,1,3.6,6.3a1.32,1.32,0,0,1,.58-.86l1-.66a.67.67,0,0,0,0-.18C5,3.51,4.54,2.31,4.2,1.36a.53.53,0,0,0-.17,0A6.73,6.73,0,0,0,1.72,2.84c-.13.13-.26.28-.4.44Z"/><path class="cls-1" d="M13.2,6.22a.66.66,0,0,1-.66-.62l-.17-2.68L9.69,2.75a.66.66,0,1,1,.09-1.32L13,1.64a.65.65,0,0,1,.62.61l.21,3.26a.66.66,0,0,1-.62.71Z"/><path class="cls-1" d="M9,6.92a.66.66,0,0,1-.47-1.13l3.67-3.67a.66.66,0,0,1,.94.94L9.5,6.73A.66.66,0,0,1,9,6.92Z"/></g></g></svg>