<svg xmlns="http://www.w3.org/2000/svg" viewBox="0 0 18.58 18.58"><defs><style>.cls-1{fill:#625F8B;}</style></defs><title>phone_no_arr</title><g id="Слой_2" data-name="Слой 2"><g id="Calque_67" data-name="Calque 67"><path class="cls-1" d="M14.66,18.58a14.59,14.59,0,0,1-10.1-4.5L4.5,14h0A14.5,14.5,0,0,1,0,3.65V3.39l.17-.21A7.46,7.46,0,0,1,1,2.3,9.8,9.8,0,0,1,4.34.09,1.46,1.46,0,0,1,4.86,0c.43,0,1.4.22,1.65.9C7,2.11,7.5,3.69,7.9,5.21A1.91,1.91,0,0,1,7.31,7l-1.42.9a1.17,1.17,0,0,0,.2.48A19.09,19.09,0,0,0,8,10.63a20.8,20.8,0,0,0,2.2,1.87.87.87,0,0,0,.44.17L11.1,12l.45-.71A1.9,1.9,0,0,1,13,10.65a1.55,1.55,0,0,1,.31,0,19.51,19.51,0,0,1,4.39,1.42,1.91,1.91,0,0,1,.75,2.15,9.83,9.83,0,0,1-2.2,3.38,8.28,8.28,0,0,1-.89.78l-.2.17ZM1.6,4a13.18,13.18,0,0,0,4,8.94l.08.08a13,13,0,0,0,8.92,4c.18-.15.36-.31.53-.48A8.19,8.19,0,0,0,17,13.67s0-.11-.07-.18A18.19,18.19,0,0,0,13,12.24l-.19,0L12,13.55a2,2,0,0,1-2.77.24,22,22,0,0,1-2.39-2,22.34,22.34,0,0,1-2-2.4,2.29,2.29,0,0,1-.44-1.75,1.6,1.6,0,0,1,.69-1l1.27-.8a1,1,0,0,0,0-.22C6,4.24,5.49,2.8,5.08,1.65a.63.63,0,0,0-.22,0A8.24,8.24,0,0,0,2.08,3.43c-.16.16-.32.34-.48.53Z"/></g></g></svg>