<svg xmlns="http://www.w3.org/2000/svg" viewBox="0 0 39.03 39.03"><defs><style>.cls-1{fill:#86c814;}</style></defs><title>smile</title><g id="Слой_2" data-name="Слой 2"><g id="Calque_3" data-name="Calque 3"><path class="cls-1" d="M5.66,33.37a19.78,19.78,0,0,0,27.71,0,19.78,19.78,0,0,0,0-27.71,19.78,19.78,0,0,0-27.71,0,19.78,19.78,0,0,0,0,27.71ZM8,8A16.43,16.43,0,0,1,31,8a16.43,16.43,0,0,1,0,23A16.43,16.43,0,0,1,8,31,16.43,16.43,0,0,1,8,8Z"/><path class="cls-1" d="M10.9,26.1a1.65,1.65,0,0,0,.25,2.32,13.33,13.33,0,0,0,16.73,0,1.65,1.65,0,1,0-2.07-2.58,10,10,0,0,1-12.59,0A1.64,1.64,0,0,0,10.9,26.1Z"/><path class="cls-1" d="M12,21a3,3,0,1,0-3-3A3,3,0,0,0,12,21Z"/><path class="cls-1" d="M27,21a3,3,0,1,0-3-3A3,3,0,0,0,27,21Z"/></g></g></svg>