<svg xmlns="http://www.w3.org/2000/svg" viewBox="0 0 20.74 19.63"><defs><style>.cls-1{fill:#5AB9ED;}</style></defs><title>writing-icon</title><g id="Слой_2" data-name="Слой 2"><g id="Calque_67" data-name="Calque 67"><path class="cls-1" d="M8.33,16.56a.81.81,0,0,1-.57-.23.84.84,0,0,1-.23-.62L7.7,12.8a.79.79,0,0,1,.24-.52l8.69-8.69a.82.82,0,0,1,1.13,0L20.5,6.33a.8.8,0,0,1,0,1.13l-8.69,8.69a.79.79,0,0,1-.52.24l-2.91.17Zm.95-3.37-.1,1.72,1.71-.1L18.8,6.9,17.19,5.28,9.28,13.19Z"/><path class="cls-1" d="M18.39,8.57a.38.38,0,0,1-.28-.12L15.64,6a.4.4,0,0,1,.56-.56l2.47,2.46a.41.41,0,0,1-.28.69Z"/><path class="cls-1" d="M8.79,13.72H8.62l-.16,0-.12,2,1.94-.11a1.89,1.89,0,0,0,.05-.23,1.51,1.51,0,0,0-1.54-1.71Z"/><path class="cls-1" d="M13,19.63H1.82A1.82,1.82,0,0,1,0,17.81v-15a.8.8,0,0,1,1.6,0v15a.22.22,0,0,0,.22.22H13a.22.22,0,0,0,.22-.22V13.09a.8.8,0,0,1,1.6,0v4.72A1.82,1.82,0,0,1,13,19.63Z"/><path class="cls-1" d="M14,8.09a.8.8,0,0,1-.8-.8V5.17A.22.22,0,0,0,13,5a.8.8,0,0,1,0-1.6A1.82,1.82,0,0,1,14.8,5.17V7.29a.8.8,0,0,1-.8.8Z"/><path class="cls-1" d="M12.82,5H2.47A2.48,2.48,0,0,1,2.47,0H14a.8.8,0,1,1,0,1.6H2.47a.88.88,0,0,0,0,1.75H12.82a.8.8,0,0,1,0,1.6Z"/><path class="cls-1" d="M8.6,7.89H3.7a.4.4,0,0,1,0-.8H8.6a.4.4,0,1,1,0,.8Z"/><path class="cls-1" d="M8.6,10.09H3.7a.4.4,0,0,1,0-.8H8.6a.4.4,0,0,1,0,.8Z"/></g></g></svg>